<svg width="17" height="17" viewBox="0 0 17 17" fill="none" xmlns="http://www.w3.org/2000/svg">
<path d="M8.5 16C12.6423 16 16 12.6415 16 8.5C16 4.3585 12.6423 1 8.5 1C4.35775 1 1 4.35775 1 8.5C1 12.6423 4.35775 16 8.5 16Z" fill="white"/>
<path d="M8.5 16.5C12.9184 16.5 16.5 12.9176 16.5 8.5C16.5 4.08239 12.9184 0.5 8.5 0.5C4.08161 0.5 0.5 4.08161 0.5 8.5C0.5 12.9184 4.08161 16.5 8.5 16.5Z" stroke="black" stroke-opacity="0.1"/>
<path d="M6.78677 12L4 9.43044L5.00493 8.15903L6.78677 9.8015L11.9951 5L13 6.27141L6.78677 12Z" fill="#25B700"/>
</svg>
